<svg width="138" height="81" viewBox="0 0 138 81" fill="none" xmlns="http://www.w3.org/2000/svg">
<g clip-path="url(#clip0_1_524)">
<path d="M49.2275 35.846C49.5896 35.6391 49.4764 35.2253 49.5669 34.9264C50.653 30.903 55.2011 28.7879 58.9345 30.5811C60.6089 31.3858 61.9439 33.5929 61.8534 35.4092C61.7629 36.8117 61.0388 37.7773 59.817 38.467C59.7491 38.3061 59.6812 38.2371 59.7038 38.2141C60.903 36.5358 60.9936 35.3402 60.0206 33.9148C58.7987 32.1215 56.8528 31.4318 54.7938 32.0526C52.1464 32.8572 50.6304 35.938 51.3545 39.0188C52.5311 43.9158 57.147 47.7553 62.5096 48.2611C63.0526 48.606 63.8219 47.9852 64.2971 48.6749C61.0162 49.1577 57.9163 48.6749 54.9974 46.9736C52.0107 45.2493 49.9742 42.7893 49.2275 39.2947C49.2275 38.1451 49.2275 36.9956 49.2275 35.846Z" fill="#AA7F59"/>
<path d="M68.6189 3.68188C69.0036 4.25666 68.9357 4.78544 68.5284 5.36022C68.2569 5.72807 68.0759 6.1419 67.8722 6.55574C67.6233 7.10752 67.7591 7.63631 68.2116 7.98117C68.7547 8.39501 69.2525 8.23407 69.705 7.70528C68.8226 7.33743 68.5058 6.73967 69.0715 5.912C69.524 5.24526 70.497 5.19928 71.1531 5.79704C71.7188 6.30284 71.8772 6.96957 71.7188 7.68229C71.5152 8.57893 70.9042 9.13071 70.067 9.38361C69.524 9.54455 68.9583 9.52156 68.3926 9.42959C66.5825 9.13071 65.9716 7.72827 66.9672 6.1419C67.216 5.72807 67.6686 5.45218 67.6912 4.85442C67.216 4.76245 66.9672 5.22227 66.5825 5.31423C66.4015 5.36022 66.2205 5.49816 66.0621 5.29124C65.9263 5.10732 66.0621 4.92339 66.1526 4.78544C66.4694 4.30264 67.0124 4.04974 67.4423 3.70488C67.8722 3.68188 68.2569 3.68188 68.6189 3.68188Z" fill="#AA7F59"/>
<path d="M72.7144 32.7883C73.4158 32.3514 74.072 32.4664 74.7282 32.5124C75.5201 32.5584 76.3121 32.6733 77.0814 32.6043C78.5069 32.4664 79.4572 31.2939 79.4346 29.8684C79.412 28.6729 78.6879 28.0062 77.1719 27.7992C76.6062 27.7073 76.0179 27.6613 75.3844 27.5693C76.6289 26.4198 78.5974 26.3968 80.1134 27.4314C81.2448 28.2131 81.7425 30.2133 81.1542 31.6847C80.8148 32.5584 80.2718 33.2941 79.5477 33.8688C78.9821 34.3057 78.8916 34.6735 79.1857 35.3862C80.5659 38.8348 80.0682 41.9846 77.4661 44.6745C73.9815 48.2611 67.7817 47.9622 64.614 44.0768C61.2878 40.0074 61.4236 33.6389 64.9307 29.7305C64.9986 29.6615 65.1117 29.6155 65.3154 29.4776C64.7271 32.2825 64.4782 35.0184 64.4103 37.7543C64.3198 42.6283 68.7999 46.1919 73.4385 44.9504C76.1311 44.2377 77.6244 41.7087 77.1267 38.6049C76.6741 35.915 75.407 33.8228 72.7144 32.7883Z" fill="#AA7F59"/>
<path d="M66.2203 55.2273C65.3605 54.5376 64.84 53.7099 64.7495 52.5833C64.6364 51.3418 64.9984 50.3302 66.0845 49.6405C67.6005 48.6979 69.2976 48.445 71.0172 48.2381C73.6872 47.9162 76.425 47.9622 79.0724 47.3414C80.792 46.9276 82.4664 46.3528 83.9825 45.4102C85.951 44.1917 86.6072 42.3294 85.8379 40.0993C84.9554 37.5703 83.2358 35.846 80.8826 34.7425C80.5884 34.6045 80.2716 34.4896 79.887 34.3516C80.9278 33.34 82.1497 33.363 83.3263 33.6619C86.1546 34.3286 87.9648 36.1449 88.5078 39.0647C89.0735 42.1225 88.2363 44.7665 85.7247 46.6747C83.5525 48.307 80.9731 48.6519 78.3936 48.9738C75.339 49.3416 72.2391 49.1577 69.1844 49.6405C68.8903 49.6865 68.5961 49.7325 68.302 49.8015C65.5189 50.5142 64.9532 51.7557 66.1977 54.3766C66.2655 54.5606 66.5144 54.7675 66.2203 55.2273Z" fill="#AA7F59"/>
<path d="M64.5007 15.5911C65.3379 14.2346 65.1569 12.3264 64.1613 11.2458C63.3467 10.3492 62.1249 10.1193 61.084 10.6481C59.7038 11.3608 59.0023 13.338 59.5001 15.1772C59.9979 16.9935 61.1066 18.4419 62.2154 19.8904C63.4146 21.4537 64.0029 23.1551 63.4146 25.1323C63.3693 25.3162 63.2788 25.4771 63.1883 25.6381C63.1657 25.6841 63.0752 25.7071 62.9847 25.73C62.6679 25.5921 62.8489 25.4082 62.8942 25.2013C63.2562 23.4769 62.781 21.9595 61.6271 20.6491C60.3147 19.1547 59.1155 17.5913 58.3462 15.729C57.6447 14.0737 57.4637 12.4183 58.5045 10.809C59.5454 9.17664 61.1293 8.5329 63.0073 9.0157C64.7722 9.47552 66.2203 11.0389 66.3787 12.7632C66.4919 13.8898 66.424 14.9933 65.7678 15.9589C65.2021 16.8096 64.4102 17.2924 63.3693 17.1775C62.781 17.1085 62.3059 16.7866 62.2154 16.0969C62.1475 15.5911 62.3285 15.2002 62.7584 14.9473C63.3015 14.6255 63.7766 14.7864 64.1839 15.2232C64.2744 15.3382 64.3876 15.4531 64.5007 15.5911Z" fill="#AA7F59"/>
<path d="M58.9796 26.2588C58.6176 26.5577 58.2782 26.8566 57.9162 27.1555C57.7352 27.2934 57.5315 27.3854 57.3053 27.1555C57.1242 26.9715 57.2147 26.8106 57.3053 26.6267C57.803 25.5231 58.4819 24.5575 59.568 24.0287C60.2241 23.7068 60.7219 23.7988 60.7672 24.7414C60.9029 27.1785 59.2964 29.3166 56.9432 29.7994C55.9703 30.0063 54.6579 29.2936 54.047 28.236C52.712 25.9599 53.5039 21.7986 55.5404 20.1662C55.9476 19.8444 56.4228 19.5915 56.9432 19.4765C58.3687 19.1317 59.568 19.4995 60.0431 20.3962C60.5635 21.4077 60.1336 22.8562 59.0023 23.8218C58.5497 23.5229 58.9344 23.1321 58.9118 22.7872C58.8665 22.2124 59.1607 21.4537 58.3913 21.2008C57.7125 20.9939 56.9885 21.0169 56.4002 21.5917C55.0426 22.9022 54.5221 25.6381 55.3367 27.3394C55.9024 28.5119 56.9206 28.7648 57.8936 27.9371C58.414 27.5233 58.776 26.9715 58.9796 26.2588Z" fill="#AA7F59"/>
<path d="M68.1211 42.7202C67.4197 41.0189 67.5554 39.2946 68.0758 37.5933C68.7547 35.3862 69.9539 33.4319 71.2662 31.5697C73.4158 28.5349 74.7282 25.1782 75.0902 21.4307C75.1581 20.672 75.2033 20.0973 74.1625 20.0973C73.5968 20.0973 72.6691 19.8214 72.9633 19.1087C73.2348 18.4189 72.9406 17.0165 74.434 17.1774C74.7508 17.2004 75.226 17.4073 75.3844 16.8556C75.4522 16.6027 75.4975 16.2808 75.8369 16.3038C76.2894 16.3498 76.2668 16.7866 76.3347 17.0855C76.8777 19.6145 76.6288 22.0975 75.9274 24.5575C74.9318 27.9831 73.1217 30.9719 71.04 33.7998C69.1167 36.4667 67.7364 39.2716 68.1211 42.7202Z" fill="#AA7F59"/>
<path d="M77.6923 17.5453C78.5068 16.2808 79.5929 15.4301 81.1542 15.3382C82.7381 15.2692 83.9147 15.9589 84.6161 17.4073C85.2723 18.7408 84.8424 19.9363 83.9825 21.0169C82.7607 22.5803 79.2083 24.9024 77.4434 25.2472C79.0951 23.8678 80.7695 22.6952 82.195 21.2238C83.5074 19.8674 83.8242 18.9017 83.2811 17.9131C82.6928 16.8326 81.0637 16.2348 79.5929 16.5567C78.8915 16.7176 78.3258 17.1774 77.6923 17.5453Z" fill="#AA7F59"/>
<path d="M81.7199 28.6958C81.7199 28.6269 81.6973 28.374 81.7652 28.167C81.9009 27.6383 82.082 27.0635 82.7381 27.1095C83.3264 27.1554 83.4622 27.7072 83.5301 28.213C83.598 28.7878 83.598 29.3626 83.7111 29.9143C83.96 31.0639 84.5935 31.4777 85.7475 31.3168C86.6526 31.1788 87.4445 30.742 88.2365 30.2822C88.5306 30.0983 88.8474 29.9143 89.1416 30.2592C89.4357 30.6501 89.2547 30.9719 88.9605 31.2478C87.7161 32.4433 86.2001 32.9721 84.5257 32.7422C82.8286 32.5123 81.7199 30.88 81.7199 28.6958Z" fill="#AA7F59"/>
<path d="M68.0305 10.1423C69.9312 10.2802 71.6282 9.65946 73.28 8.73982C73.5741 8.57889 73.8683 8.39496 74.1851 8.28001C74.4566 8.18804 74.7734 8.16505 74.9996 8.48692C75.2259 8.83179 75.1806 9.15366 74.9091 9.42955C74.6828 9.65946 74.4113 9.91236 74.1172 10.0503C71.764 11.2688 69.2976 11.6597 66.7182 11.0389C66.4014 10.9699 65.9262 10.9469 65.9941 10.5101C66.0393 10.1193 66.5145 10.1423 66.8313 10.1423C67.216 10.1423 67.6232 10.1423 68.0305 10.1423Z" fill="#AA7F59"/>
<path d="M70.3158 14.9934C72.3296 15.0854 73.9587 14.6025 75.4974 13.7749C75.8368 13.591 76.1536 13.407 76.493 13.2461C76.8776 13.0622 77.3302 12.9012 77.6017 13.361C77.8732 13.8209 77.6469 14.2347 77.2623 14.5336C76.1536 15.3842 74.8638 15.7521 73.5288 16.005C72.0355 16.2809 70.5421 16.2579 69.0713 15.8441C68.8224 15.7751 68.5057 15.6831 68.5735 15.3612C68.5962 15.2233 68.9129 15.0624 69.1166 15.0394C69.5691 14.9704 70.0443 14.9934 70.3158 14.9934Z" fill="#AA7F59"/>
<path d="M69.0713 12.6024C71.153 12.6943 73.031 12.0276 74.8186 10.993C75.2711 10.7401 75.8594 10.2113 76.2667 10.924C76.6966 11.6368 76.063 12.0506 75.5426 12.3495C73.2347 13.614 70.7683 14.0738 68.1889 13.476C67.8495 13.4071 67.1933 13.476 67.3064 12.8783C67.3969 12.4414 67.94 12.6024 68.2794 12.5794C68.5283 12.5564 68.7998 12.5794 69.0713 12.6024Z" fill="#AA7F59"/>
<path d="M86.3584 30.5582C85.5438 30.5582 84.865 29.8915 84.865 29.0638C84.8424 28.1672 85.5438 27.4775 86.4263 27.5234C87.2861 27.5464 87.8744 28.1902 87.8744 29.0638C87.8292 29.9145 87.173 30.5582 86.3584 30.5582Z" fill="#AA7F59"/>
<path d="M65.3154 27.8453C65.9264 27.9373 66.1753 27.0176 66.7183 27.4085C67.3066 27.8223 67.4424 28.627 67.7139 29.2937C67.7818 29.4547 67.7591 29.6846 67.5555 29.7995C67.3519 29.9145 67.1935 29.7765 67.0351 29.6616C66.3789 29.2018 65.7906 28.673 65.3154 27.8453Z" fill="#AA7F59"/>
<path d="M66.5825 25.891C66.5599 26.4658 66.7861 26.9716 66.0394 27.2474C65.338 27.5233 64.9081 27.4084 64.5234 26.6727C65.157 26.4428 65.8358 26.1899 66.5825 25.891Z" fill="#AA7F59"/>
<path d="M70.6778 19.7525C72.488 20.971 72.9179 22.0056 72.2617 23.8449C72.3522 22.0976 71.6734 20.9021 70.4516 19.9824C70.3837 19.7755 70.4289 19.6605 70.6778 19.7525Z" fill="#AA7F59"/>
<path d="M70.4289 23.408C69.9085 23.5 69.6143 23.2011 69.6596 22.7413C69.6822 22.3734 69.5917 22.1895 69.3202 22.0055C69.2749 21.8216 69.2975 21.6837 69.5238 21.7986C70.0895 22.0285 70.5873 22.3734 70.8814 22.9482C71.0398 23.454 70.5873 23.27 70.4289 23.408Z" fill="#AA7F59"/>
<path d="M64.3198 48.6749C63.7993 48.1921 63.0526 48.7439 62.5322 48.2611C63.8898 48.1921 65.2701 48.3071 66.6503 48.0772C65.9036 48.468 65.1343 48.6749 64.3198 48.6749Z" fill="#AA7F59"/>
<path d="M69.524 21.8216C69.4561 21.8906 69.3883 21.9596 69.3204 22.0286C69.0941 22.1435 68.5284 21.0859 68.6189 22.2355C68.3022 21.7986 68.5058 21.2239 68.2795 20.7181C68.6868 21.0859 69.1167 21.4538 69.524 21.8216Z" fill="#AA7F59"/>
<path d="M70.429 23.4079C70.5873 23.27 70.7231 23.109 70.8815 22.9711C71.5829 23.7988 71.1304 22.4423 71.515 22.6492C71.6282 23.201 71.5603 23.7298 71.0851 24.1206C71.0625 23.7068 70.7231 23.5918 70.429 23.4079Z" fill="#AA7F59"/>
<path d="M70.678 19.7524C70.6101 19.8214 70.5196 19.8904 70.4517 19.9823C69.9313 19.6605 69.4335 19.3616 68.9131 19.0397C69.6145 19.0397 70.1576 19.3386 70.678 19.7524Z" fill="#AA7F59"/>
</g>
<path d="M7.41493 76.5733H5.73602V63.1125H7.41493V76.5733ZM12.1898 76.5733H10.5109V63.1125H12.1898V76.5733ZM25.989 61.5662C25.7926 61.5662 25.6257 61.5024 25.4883 61.3747C25.3606 61.2373 25.2968 61.0704 25.2968 60.874C25.2968 60.6776 25.3606 60.5107 25.4883 60.3733C25.6257 60.2358 25.7926 60.1671 25.989 60.1671C26.1854 60.1671 26.3474 60.2358 26.475 60.3733C26.6125 60.5107 26.6812 60.6776 26.6812 60.874C26.6812 61.0704 26.6125 61.2373 26.475 61.3747C26.3474 61.5024 26.1854 61.5662 25.989 61.5662ZM25.989 64.0256C24.9679 64.0256 24.1874 63.7753 23.6474 63.2745C23.1074 62.764 22.8374 62.1013 22.8374 61.2864H24.0745C24.0745 61.7282 24.2414 62.1111 24.5752 62.4351C24.909 62.7493 25.3803 62.9064 25.989 62.9064C26.5879 62.9064 27.0543 62.7493 27.3881 62.4351C27.7219 62.1111 27.8888 61.7282 27.8888 61.2864H29.1406C29.1406 62.1013 28.8657 62.764 28.3159 63.2745C27.7759 63.7753 27.0003 64.0256 25.989 64.0256ZM29.0081 64.8209C30.0586 64.8209 30.8146 65.1302 31.2761 65.7487C31.7474 66.3575 31.983 67.2607 31.983 68.4585V70.4025C31.983 71.7869 31.6688 72.8325 31.0405 73.5395C30.4219 74.2365 29.4646 74.5851 28.1686 74.5851C27.7857 74.5851 27.2997 74.536 26.7106 74.4378V73.1418C27.1819 73.2204 27.5796 73.2596 27.9036 73.2596C28.8559 73.2596 29.5236 73.0191 29.9065 72.538C30.2894 72.0569 30.4808 71.3304 30.4808 70.3584V68.2671C30.4808 67.57 30.3679 67.0398 30.1421 66.6765C29.9163 66.3133 29.5383 66.1316 29.0081 66.1316C28.5074 66.1316 28.1441 66.2838 27.9183 66.5882C27.6925 66.8925 27.5796 67.3049 27.5796 67.8253C27.5796 68.8365 27.3636 69.5582 26.9316 69.9902C26.5094 70.4222 25.8074 70.6431 24.8256 70.6529C24.9728 71.0162 25.0465 71.404 25.0465 71.8164C25.0465 72.7 24.7666 73.4069 24.207 73.9371C23.6474 74.4673 22.911 74.7324 21.9979 74.7324C21.3499 74.7324 20.7706 74.6096 20.2601 74.3642C19.7594 74.1089 19.3716 73.7555 19.0966 73.3038C18.8217 72.8424 18.6843 72.3122 18.6843 71.7133H20.1423C20.1423 72.2042 20.3043 72.6116 20.6283 72.9356C20.9621 73.2498 21.3892 73.4069 21.9096 73.4069C22.4299 73.4069 22.8423 73.2498 23.1466 72.9356C23.4608 72.6116 23.6179 72.1895 23.6179 71.6691C23.6179 71.2076 23.4608 70.81 23.1466 70.4762C22.8423 70.1325 22.3759 69.9607 21.7476 69.9607H21.1437V68.65H21.7476C22.2974 68.65 22.7196 68.4978 23.0141 68.1935C23.3185 67.8891 23.4706 67.5258 23.4706 67.1036C23.4706 66.6127 23.3136 66.2249 22.9994 65.9402C22.695 65.6456 22.317 65.4984 21.8654 65.4984C21.3941 65.4984 21.0014 65.6358 20.6872 65.9107C20.3828 66.1758 20.2306 66.5342 20.2306 66.9858H18.7874C18.7874 66.4262 18.915 65.9353 19.1703 65.5131C19.4354 65.0909 19.8036 64.7669 20.2748 64.5411C20.7461 64.3055 21.2812 64.1876 21.8801 64.1876C22.7736 64.1876 23.4952 64.438 24.045 64.9387C24.6046 65.4296 24.8845 66.0825 24.8845 66.8975C24.8845 67.4865 24.7323 67.9873 24.4279 68.3996C24.1334 68.812 23.7063 69.0918 23.1466 69.2391V69.2833C23.3823 69.3422 23.5492 69.3962 23.6474 69.4453H24.5163C25.0661 69.4453 25.4736 69.3275 25.7386 69.0918C26.0037 68.8464 26.1363 68.4193 26.1363 67.8105C26.1363 66.8484 26.3572 66.112 26.799 65.6015C27.2506 65.0811 27.987 64.8209 29.0081 64.8209ZM48.6294 64.0109V65.3069H46.8327V74.9091H45.3011V65.3069H42.9005V69.0918C42.9005 69.9067 42.6845 70.5695 42.2525 71.08C41.8303 71.5905 41.1823 71.8458 40.3085 71.8458C39.4543 71.8458 38.7965 71.6102 38.3351 71.1389C37.8834 70.6578 37.6576 70.0049 37.6576 69.1802C37.6576 68.974 37.6625 68.8218 37.6723 68.7236H39.1745V69.1802C39.1745 69.5631 39.258 69.8822 39.4249 70.1375C39.6016 70.3927 39.8814 70.5204 40.2643 70.5204C40.6669 70.5204 40.9467 70.3927 41.1038 70.1375C41.2707 69.8724 41.3542 69.5435 41.3542 69.1507V65.3069H36.6562V64.0109H48.6294ZM61.4072 65.3069H59.6105V74.9091H58.0641V65.3069H55.4574V69.3422C55.4574 70.2455 55.2021 70.9769 54.6915 71.5365C54.181 72.0962 53.4545 72.376 52.5119 72.376C51.5792 72.376 50.8575 72.0962 50.347 71.5365C49.8365 70.9671 49.5812 70.2356 49.5812 69.3422V65.3069H47.9317V64.0109H61.4072V65.3069ZM53.9405 65.3069H51.0981V69.4895C51.0981 69.9607 51.2257 70.3436 51.481 70.6382C51.7461 70.9229 52.0946 71.0653 52.5266 71.0653C52.9685 71.0653 53.3121 70.9229 53.5575 70.6382C53.8128 70.3436 53.9405 69.9607 53.9405 69.4895V65.3069ZM71.1447 65.3069H69.3479V74.9091H67.8163V71.0505C67.5708 71.404 67.2468 71.6789 66.8443 71.8753C66.4418 72.0716 65.9705 72.1698 65.4305 72.1698C64.3898 72.1698 63.5945 71.836 63.0447 71.1684C62.5047 70.5007 62.2347 69.6024 62.2347 68.4733V65.3069H60.703V64.0109H71.1447V65.3069ZM67.8163 65.3069H63.781V68.4733C63.781 69.2195 63.9479 69.8036 64.2818 70.2258C64.6156 70.648 65.1261 70.8591 65.8134 70.8591C66.4418 70.8591 66.9327 70.6578 67.2861 70.2553C67.6396 69.8429 67.8163 69.3373 67.8163 68.7384V65.3069ZM81.4263 65.3069H79.6295V74.9091H78.0832V68.9298H76.0213C75.177 68.9298 74.5143 69.1311 74.0332 69.5336C73.5521 69.9362 73.3115 70.5204 73.3115 71.2862C73.3115 72.0324 73.5226 72.6165 73.9448 73.0387C74.3768 73.4511 74.9953 73.6573 75.8004 73.6573H76.1097V74.8796H75.5795C74.421 74.8796 73.4932 74.5753 72.7961 73.9665C72.099 73.348 71.7504 72.4447 71.7504 71.2567C71.7504 70.0393 72.1333 69.1262 72.8992 68.5175C73.665 67.9087 74.6812 67.6044 75.9477 67.6044H78.0832V65.3069H70.4397V64.0109H81.4263V65.3069ZM92.3722 65.3069H90.5755V74.9091H89.0291V71.9636C88.7346 72.3956 88.3271 72.7442 87.8067 73.0093C87.2864 73.2645 86.6678 73.3922 85.9511 73.3922C84.7042 73.3922 83.7371 73.0191 83.0498 72.2729C82.3724 71.5267 82.0336 70.5155 82.0336 69.2391C82.0336 68.9838 82.0484 68.7335 82.0778 68.488H82.2693C83.1136 68.488 83.742 68.3113 84.1544 67.9578C84.5667 67.5945 84.7729 67.0153 84.7729 66.22V65.3069H80.7229V64.0109H92.3722V65.3069ZM89.0291 65.3069H86.3046V66.4851C86.3046 68.272 85.3866 69.2195 83.5506 69.3275V69.3864C83.5506 70.2111 83.7911 70.8689 84.2722 71.3598C84.7533 71.8507 85.4209 72.0962 86.2751 72.0962C86.7955 72.0962 87.2667 71.9833 87.6889 71.7575C88.1111 71.5316 88.44 71.2175 88.6756 70.8149C88.9113 70.4124 89.0291 69.9558 89.0291 69.4453V65.3069ZM89.1052 64.0698C88.6241 63.3138 88.2313 62.7738 87.927 62.4498C87.6226 62.116 87.3281 61.9 87.0433 61.8018C86.7488 61.6938 86.3462 61.6398 85.8357 61.6398H85.173V60.3733H85.8062C86.5622 60.3831 87.1612 60.4665 87.603 60.6236C88.035 60.7709 88.4768 61.0998 88.9284 61.6104C89.3702 62.1209 89.9152 62.9407 90.5632 64.0698H89.1052ZM107.967 65.3069H106.171V74.9091H104.624V68.812H102.062C102.504 69.3225 102.724 69.9362 102.724 70.6529C102.724 71.2125 102.597 71.7035 102.342 72.1256C102.086 72.538 101.733 72.8522 101.281 73.0682C100.839 73.2842 100.344 73.3922 99.7937 73.3922C99.2242 73.3922 98.7039 73.2744 98.2326 73.0387C97.7613 72.7933 97.3882 72.4496 97.1133 72.0078C96.8482 71.566 96.7157 71.0505 96.7157 70.4615C96.7157 69.8429 96.8532 69.3127 97.1281 68.8709C97.4128 68.4291 97.7957 68.0953 98.2768 67.8695C98.7677 67.6338 99.3175 67.516 99.9262 67.516H104.624V65.3069H95.4933V64.0109H107.967V65.3069ZM99.8232 72.0815C100.314 72.0815 100.712 71.9293 101.016 71.6249C101.33 71.3205 101.487 70.9278 101.487 70.4467C101.487 69.9755 101.33 69.5876 101.016 69.2833C100.702 68.9691 100.304 68.812 99.8232 68.812C99.3224 68.812 98.9101 68.9691 98.5861 69.2833C98.2719 69.5876 98.1148 69.9804 98.1148 70.4615C98.1148 70.9425 98.2719 71.3353 98.5861 71.6396C98.9002 71.9342 99.3126 72.0815 99.8232 72.0815ZM119.776 65.3069H117.979V74.9091H116.433V69.4453H113.974V70.4615C113.974 71.4629 113.728 72.2385 113.237 72.7884C112.756 73.3284 112.059 73.5984 111.146 73.5984C110.282 73.5984 109.59 73.348 109.069 72.8473C108.549 72.3465 108.289 71.6887 108.289 70.8738C108.289 70.0196 108.564 69.3569 109.114 68.8856C109.673 68.4144 110.39 68.1787 111.264 68.1787H112.53V65.3069H107.258V64.0109H119.776V65.3069ZM116.433 65.3069H113.974V68.1787H116.433V65.3069ZM112.53 69.4453H111.308C110.837 69.4453 110.454 69.5729 110.159 69.8282C109.865 70.0835 109.717 70.432 109.717 70.8738C109.717 71.3058 109.85 71.6495 110.115 71.9047C110.38 72.16 110.719 72.2876 111.131 72.2876C111.573 72.2876 111.917 72.1355 112.162 71.8311C112.408 71.5169 112.53 71.0849 112.53 70.5351V69.4453ZM122.232 67.7664C122.232 68.0413 122.133 68.272 121.937 68.4585C121.751 68.6451 121.52 68.7384 121.245 68.7384C120.97 68.7384 120.734 68.6451 120.538 68.4585C120.351 68.272 120.258 68.0413 120.258 67.7664C120.258 67.4915 120.351 67.2607 120.538 67.0742C120.734 66.8876 120.97 66.7944 121.245 66.7944C121.52 66.7944 121.751 66.8876 121.937 67.0742C122.133 67.2607 122.232 67.4915 122.232 67.7664ZM122.232 72.1845C122.232 72.4595 122.133 72.6902 121.937 72.8767C121.751 73.0633 121.52 73.1565 121.245 73.1565C120.97 73.1565 120.734 73.0633 120.538 72.8767C120.351 72.6902 120.258 72.4595 120.258 72.1845C120.258 71.9096 120.351 71.6789 120.538 71.4924C120.734 71.3058 120.97 71.2125 121.245 71.2125C121.52 71.2125 121.751 71.3058 121.937 71.4924C122.133 71.6789 122.232 71.9096 122.232 72.1845ZM130.109 76.5733H128.43V63.1125H130.109V76.5733ZM134.884 76.5733H133.205V63.1125H134.884V76.5733Z" fill="#AA7F59"/>
<defs>
<clipPath id="clip0_1_524">
<rect width="40.0497" height="51.5455" fill="white" transform="translate(49.2275 3.68182)"/>
</clipPath>
</defs>
</svg>
