<svg width="100" height="79" viewBox="0 0 100 79" fill="none" xmlns="http://www.w3.org/2000/svg">
<g clip-path="url(#clip0_1_561)">
<path d="M97.5914 25.7277C94.7278 22.874 91.8641 20.0203 89.9551 17.1667H89.0005C85.1823 18.1179 82.3187 18.1179 79.4551 19.0691V30.4838C79.4551 30.4838 79.4551 30.4838 78.5005 30.4838C70.8641 24.7764 62.2732 23.8252 52.7278 28.5813C52.7278 28.5813 51.7732 28.5813 50.8187 28.5813C48.9096 26.6789 47.0005 24.7764 44.1369 22.874C41.2732 21.9228 38.4096 20.9716 34.5914 20.0203L35.546 19.0691C38.4096 16.2155 41.2732 13.3618 43.1823 11.4594C43.1823 10.5081 44.1369 10.5081 43.1823 9.55692C42.2278 6.70326 40.3187 4.80082 39.3641 1.94716L38.4096 0.995941H24.0914C24.0914 0.995941 23.1369 0.995941 23.1369 1.94716C21.2278 4.80082 19.3187 7.65448 17.4096 10.5081C20.2732 13.3618 24.0914 16.2155 26.9551 20.0203C13.5914 22.874 5.00051 29.5325 2.13687 42.8496C-0.726767 54.2642 4.04596 64.7277 13.5914 71.3862C26.0005 79.9472 37.455 78.996 49.8641 70.435C60.3641 78.0447 73.7278 75.1911 81.3642 68.5325C85.1823 64.7277 88.046 60.9228 89.0005 55.2155C90.9096 47.6057 89.0005 40.9472 85.1823 35.2398C86.1369 35.2398 86.1369 35.2398 87.0914 35.2398C89.9551 35.2398 92.8187 35.2398 95.6823 35.2398C96.6369 35.2398 96.6369 35.2398 97.5914 34.2886C98.546 32.3862 98.546 29.5325 99.5005 27.6301C98.546 26.6789 97.5914 25.7277 97.5914 25.7277ZM21.2278 10.5081V9.55692C22.1823 7.65448 23.1369 5.75204 24.0914 4.80082C25.046 3.8496 27.9096 4.80082 29.8187 4.80082C32.6823 4.80082 34.5914 4.80082 36.5005 4.80082C37.4551 4.80082 37.4551 4.80082 38.4096 5.75204C39.3641 6.70326 40.3187 8.6057 41.2732 9.55692C38.4096 13.3618 34.5914 17.1667 31.7278 20.0203H30.7732C26.9551 17.1667 24.0914 13.3618 21.2278 10.5081ZM13.5914 69.4838C2.13687 59.9716 1.18232 42.8496 10.7278 32.3862C21.2278 21.9228 38.4096 20.9716 48.9096 31.435C36.5005 40.9472 36.5005 59.9716 47.9551 69.4838C41.2732 76.1423 25.046 78.996 13.5914 69.4838ZM48.9096 68.5325C38.4096 59.9716 37.4551 41.8984 50.8187 32.3862C60.3641 42.8496 59.4096 59.9716 48.9096 68.5325ZM79.4551 66.6301C70.8642 75.1911 57.5005 75.1911 50.8187 69.4838C61.3187 59.9716 64.1823 43.8008 54.6369 31.435C60.3641 25.7277 73.7278 28.5813 80.4096 36.1911C88.046 44.752 88.046 58.0691 79.4551 66.6301ZM94.7278 32.3862H82.3187V20.9716C82.3187 20.9716 82.3187 20.0203 83.2732 20.0203C87.0914 19.0691 87.0914 19.0691 90.9096 21.9228C92.8187 23.8252 93.7732 24.7764 94.7278 26.6789C95.6823 26.6789 95.6823 27.6301 95.6823 28.5813C95.6823 29.5325 94.7278 30.4838 94.7278 32.3862Z" fill="#B67324" stroke="#B67324" stroke-width="1.32955" stroke-miterlimit="10"/>
</g>
<defs>
<clipPath id="clip0_1_561">
<rect width="99.2727" height="78" fill="white" transform="translate(0.227783 0.0447998)"/>
</clipPath>
</defs>
</svg>
