<svg width="122" height="92" viewBox="0 0 122 92" fill="none" xmlns="http://www.w3.org/2000/svg">
<g clip-path="url(#clip0_1_569)">
<path d="M16.8941 24.0313C18.7921 24.4885 20.5495 22.4134 20.0223 20.3031C19.9169 19.8108 19.6708 19.3887 19.5654 18.8963C20.7604 19.9514 20.7604 21.3231 20.2332 22.6244C19.6005 24.1719 18.4055 25.2622 16.6129 25.4029C12.8169 25.7195 9.68872 23.574 8.49368 19.8811C7.26349 16.1881 8.63428 12.0028 12.0437 10.3498C14.0823 9.36498 16.4723 9.04844 18.7218 8.52088C19.4248 8.34502 20.1629 8.48571 20.8659 8.27468C15.7342 7.99331 10.8486 7.78229 6.1739 11.3346C3.50263 13.3745 1.81551 15.4847 1.0071 18.4391C-0.0121991 22.2727 0.479877 25.9657 3.81896 28.6035C4.83826 29.4124 6.1739 29.9048 7.43924 30.1862C9.40754 30.6082 10.7432 29.7641 11.5164 27.9704C12.5006 25.6843 14.5392 25.2271 17.5971 26.6339C17.4565 29.3773 17.3862 29.4124 13.4144 29.5883C14.3634 29.6586 15.2773 29.729 16.3669 29.7993C15.8748 29.9752 15.4179 30.2917 15.1367 30.1862C12.7466 29.4124 10.4971 30.2917 8.1422 30.5731C4.97886 30.9599 2.0264 28.5683 0.725915 25.2271C0.479877 24.594 0.268987 23.9258 0.0229492 23.2575C0.0229492 21.8507 0.0229492 20.4438 0.0229492 19.037C0.163542 18.7205 0.304135 18.4039 0.374432 18.0874C1.99125 12.6007 5.40064 8.87259 11.0244 7.28989C15.5936 6.02374 20.1278 5.24998 24.8728 5.67203C25.646 5.74237 26.4193 5.81271 27.4035 5.88306C26.7708 4.89827 26.2084 4.15968 25.7866 3.35075C25.0837 2.22528 24.9431 1.06464 26.0678 0.0446777C26.4193 0.0446777 26.7708 0.0446777 27.1223 0.0446777C27.7198 0.959122 28.3525 1.87357 28.95 2.82318C29.4772 3.66729 29.9341 4.26519 31.2346 3.98382C32.8866 3.66729 34.0816 5.60169 33.2029 7.25472C32.746 8.09883 32.9217 8.59122 33.3787 9.25947C39.143 17.4543 44.9073 25.6491 50.6013 33.844C51.3043 34.8639 51.9721 34.8639 53.0968 34.6881C56.0844 34.1253 59.0721 33.6681 62.0948 33.4219C66.0314 33.0702 68.773 35.0749 70.7413 38.3107C72.9205 41.9333 73.764 46.0131 74.3615 50.2688C76.9977 49.9874 79.5635 49.6357 82.1645 49.495C92.8495 48.862 103.289 50.0226 113.446 53.5749C114.114 53.8211 114.747 54.1376 115.38 54.3838C118.262 55.6148 120.652 57.3733 121.671 60.5035C121.671 62.1566 121.671 63.7744 121.671 65.4275C120.195 69.1556 119.211 73.2003 117.102 76.5415C110.599 86.9521 100.863 91.7354 88.702 91.3485C83.9922 91.1726 80.1259 88.4293 76.6813 85.3342C75.3457 84.1384 74.3264 82.0985 72.815 81.6413C71.4091 81.2192 69.5814 82.5206 67.8591 82.8723C66.6289 83.1185 65.2581 83.224 64.028 82.9778C62.7978 82.7316 62.0245 82.9426 61.1107 83.7515C53.5538 90.6451 44.6964 90.9616 35.4524 88.4293C25.4 85.6859 17.7377 79.6365 11.9734 71.09C11.5164 70.4218 11.2001 69.648 10.8135 68.9094C8.31794 64.3372 8.49368 62.4028 11.9031 58.2878C16.0857 53.2935 21.3228 49.5302 26.8411 46.189C30.0396 44.2546 33.3435 42.4608 36.6826 40.843C40.0217 39.1899 43.5014 37.8183 47.1216 36.2708C46.8405 35.7784 46.5241 35.2508 46.1726 34.7232C40.9707 26.7394 35.6984 18.7908 30.6371 10.7015C29.4069 8.7319 27.8955 8.38019 25.9975 8.52088C23.2208 8.69673 20.4441 8.9781 17.6674 9.18913C13.2387 9.54083 10.2511 11.8621 9.30209 15.6958C8.49368 19.459 11.2352 23.8554 14.9961 24.5237C15.5936 24.6292 16.2966 24.172 16.9644 23.9609L16.8941 24.0313ZM81.9184 85.5101C81.1803 85.7211 80.4774 85.9321 79.5284 86.2135C81.1803 87.5852 81.1803 87.5852 83.0432 86.5652C82.6917 86.9873 82.3402 87.4093 81.9887 87.8665C85.8902 90.5044 87.7179 90.7154 89.7916 88.6403C87.9639 87.5852 86.1714 86.5652 84.414 85.5453C83.9922 85.0177 83.6055 84.4901 82.9729 83.6812C82.4808 84.5253 82.1996 85.0177 81.9184 85.5101ZM85.5739 76.0843C85.0818 76.1546 84.414 76.0139 84.1679 76.2953C83.9219 76.5767 84.0625 77.2449 84.0273 77.7373C82.8323 76.9635 82.1996 77.2449 82.059 78.5814C81.7427 78.5111 81.4615 78.4407 81.1452 78.3704C81.0046 77.7725 80.864 77.2097 80.7234 76.436C79.8798 76.9635 79.3526 77.2801 78.4388 77.8428C79.212 78.2649 79.7392 78.5462 80.2665 78.8276C80.7937 79.8124 81.3209 80.7972 81.9184 81.993C83.1135 80.9379 83.9922 80.1289 84.8006 79.4255C84.4491 78.7221 84.2031 78.2297 83.957 77.7021C84.414 78.089 84.8709 78.4759 85.4333 78.9683C85.8199 78.3704 86.1362 77.878 86.4526 77.3504C87.6476 76.436 87.6476 76.4008 85.7144 74.3961C85.6793 75.1347 85.609 75.5919 85.5739 76.0843ZM105.819 79.9531C105.222 79.4255 104.659 78.9331 103.992 78.3352C103.464 79.1441 103.113 79.6365 102.761 80.1289C103.218 80.4806 103.605 80.762 103.956 81.0434C103.289 80.9379 102.586 80.8675 101.918 80.762C101.812 80.4806 101.742 80.1993 101.637 79.8827C102.234 79.4255 102.867 79.0035 103.464 78.5462C103.394 78.3352 103.324 78.1242 103.253 77.878C102.761 77.9483 102.199 77.878 101.848 78.089C101.145 78.5814 100.969 79.2497 101.707 79.9179C99.5629 79.2497 99.7035 81.5709 98.1218 82.3095C99.0356 82.6261 99.4926 82.8019 99.9495 82.9778C102.375 85.0529 104.941 84.3846 105.468 81.5709C106.206 81.1489 106.909 80.762 107.647 80.34C107.577 80.1641 107.506 79.9531 107.436 79.7772C106.874 79.8827 106.346 79.9179 105.819 79.9531ZM98.1569 71.1955C97.7 71.0197 97.2431 70.8438 96.3644 70.4921C97.8757 72.1451 99.0356 73.3761 100.477 74.994C100.477 74.0795 100.477 73.6223 100.477 73.1651C101.18 72.4265 101.883 71.6879 102.55 70.9493C102.41 70.7383 102.269 70.5273 102.129 70.3162C100.828 70.6328 99.4926 70.9141 98.1569 71.1955ZM96.3644 81.6413C98.403 81.8875 98.7896 80.0938 99.7386 79.0386C99.6683 78.8628 99.5629 78.6869 99.4926 78.5111C99.0005 78.6869 98.5084 78.8979 98.0163 79.0738C98.0515 78.5111 98.0866 77.9483 98.0866 77.3856C98.6842 76.9284 99.2465 76.4712 99.9144 75.9436C98.403 74.5719 97.2079 73.4816 96.0129 72.3913C94.3961 73.6575 96.1535 74.5719 96.1535 75.6271C95.7317 75.1347 95.3451 74.6071 94.9233 74.0795C93.9743 75.3457 93.2713 76.3305 92.3575 77.5966C93.3768 78.5111 94.3609 79.3903 95.3451 80.2696C94.2906 79.4959 93.2362 78.7221 92.1466 77.878C91.8654 78.2297 91.5139 78.6166 91.1273 79.109C91.6897 79.6014 92.1817 80.0938 92.709 80.551C93.3065 81.0434 93.8688 81.6061 94.5718 81.8523C95.099 81.993 95.7669 81.7116 96.3644 81.6413ZM110.248 82.8019C106.593 82.415 105.714 82.7668 104.273 85.1584C106.522 86.0025 108.807 85.0529 110.178 82.7668C110.951 82.2392 111.759 81.7116 112.533 81.1841C110.845 80.7972 109.193 79.9883 108.244 82.0282C109.018 82.3447 109.65 82.5909 110.248 82.8019ZM116.715 74.9588C117.137 74.3609 117.559 73.763 117.981 73.1299C117.84 72.9892 117.735 72.8134 117.594 72.6727C116.926 72.9541 116.223 73.1651 115.59 73.5168C115.52 73.552 115.837 74.2906 115.977 74.7126C115.52 74.8181 114.852 74.7126 114.606 74.994C113.728 75.9788 113.025 77.1042 112.181 78.2297C112.849 78.4407 113.376 78.5814 114.079 78.8276C112.954 78.9331 112.111 79.0386 111.232 79.109C111.232 79.2497 111.267 79.4255 111.267 79.5662C113.763 80.0938 115.837 78.3352 116.715 74.9588ZM108.701 70.7735C107.647 72.4617 106.628 74.1499 105.468 76.0139C106.382 76.4008 107.12 76.7174 107.928 77.0691C108.701 75.9436 109.404 74.8885 110.178 73.8685C110.81 73.0244 110.881 72.3562 109.967 71.7582C110.494 71.7231 111.021 71.6527 111.548 71.6176C110.881 70.9845 110.248 70.3514 109.58 69.7535C109.264 70.07 108.983 70.4218 108.701 70.7735ZM80.1962 83.3998C81.7427 83.435 81.3209 82.5557 80.864 81.8523C80.4071 81.1841 79.8447 80.551 79.212 80.0586C78.8957 79.8124 78.2982 79.8827 77.6303 79.7421C77.8764 80.551 78.017 80.973 78.1576 81.3951C77.7358 81.0082 77.314 80.6213 77.0328 80.3751C75.9081 80.5158 74.9591 80.6565 73.9749 80.762C73.9046 80.9379 73.8695 81.1137 73.7992 81.3247C75.1348 82.5557 76.4002 83.8219 77.8412 84.9473C78.263 85.2639 79.0714 85.2991 79.5986 85.1584C80.4422 84.9122 80.6882 84.2439 80.1962 83.3998ZM91.1624 82.415C90.5298 82.0282 89.9322 81.6413 89.3699 81.2896C88.21 82.5206 87.0852 83.6812 85.8902 84.9825C87.2258 85.8266 88.6318 86.7762 90.0728 87.6203C90.4243 87.8314 91.1273 87.8314 91.4436 87.6203C92.4629 86.8818 93.3416 85.9673 94.2555 85.1584C93.1307 84.1736 92.1114 83.2591 91.0921 82.3447C92.3575 82.415 92.9198 84.4901 94.853 83.4702C93.3065 82.2392 91.9357 81.1137 90.5649 80.0234C90.4243 80.0586 90.2486 80.0586 90.108 80.0938C90.1783 80.5158 90.1783 80.973 90.354 81.3599C90.4946 81.7468 90.8461 82.0633 91.1624 82.415ZM47.3325 75.8381C46.5944 78.0538 45.8563 80.3048 45.0479 82.8371C48.2112 82.9778 51.0582 83.1536 53.9053 83.1888C54.3973 83.1888 55.2057 82.7668 55.3463 82.3799C56.1196 80.2696 56.682 78.0538 57.2795 76.0843C54.081 75.5919 51.0934 75.1347 48.1058 74.6774C47.0865 74.5368 47.0513 75.0995 47.3325 75.8381ZM56.1899 51.1832C53.5538 46.7517 51.0582 42.5312 48.4924 38.381C48.2815 38.0293 47.2622 37.7831 46.8053 37.959C42.7281 39.6472 38.5806 41.3002 34.644 43.3049C27.2277 46.9979 20.2684 51.3943 14.4689 57.4085C12.9224 59.0264 11.657 60.9959 10.6377 63.0007C9.65358 64.9703 10.5323 66.6936 12.6763 67.1157C14.5392 67.5026 16.5426 67.6784 18.4055 67.397C32.3242 65.3571 44.3801 58.9912 56.1899 51.1832ZM74.7482 51.4646C74.6076 54.5245 74.4318 57.514 74.3264 60.4684C74.3264 60.7849 74.6076 61.2773 74.8888 61.3828C77.314 62.2973 79.7392 63.4227 82.2699 64.0206C90.9515 65.955 99.7738 66.4826 108.631 65.322C111.935 64.8999 115.239 63.8096 118.297 62.5083C120.792 61.4532 120.898 59.3429 118.684 57.725C116.715 56.283 114.501 55.1224 112.251 54.2783C105.503 51.746 98.403 50.8667 91.2679 50.4447C85.7144 50.1281 80.161 50.3391 74.7482 51.4646ZM56.6117 52.5549C52.5345 54.9465 48.5627 57.5844 44.3801 59.6594C34.2574 64.7241 23.9941 69.5425 12.1491 68.5225C13.063 70.4569 13.063 70.6679 15.0664 70.6679C18.7218 70.6679 22.4827 70.8086 26.0678 70.1756C37.2098 68.1708 46.9459 62.8248 56.0844 56.3534C58.2988 54.7707 58.2636 54.7355 56.6117 52.5549ZM52.2181 36.0949C55.1354 40.0692 57.8419 43.7622 60.8998 47.9475C63.1493 45.0635 65.3636 42.6367 67.0507 39.8934C68.6675 37.2907 67.5779 35.4618 64.52 34.8288C60.4077 33.9846 56.5414 35.1805 52.2181 36.0949ZM83.711 68.7335C76.611 72.11 70.0032 75.1698 63.4656 78.3704C62.9032 78.6518 62.4111 79.531 62.4111 80.1641C62.4111 80.6213 63.1141 81.3951 63.6413 81.5358C64.6255 81.8171 65.7502 81.9227 66.7344 81.782C73.0962 80.8324 78.017 77.4208 81.9184 72.4968C82.6917 71.5472 83.008 70.2811 83.711 68.7335ZM83.3244 65.533C84.4843 66.975 84.6248 68.8039 87.0501 69.0501C93.904 69.6832 100.688 69.9997 107.506 68.9797C111.724 68.3467 115.872 67.3619 119.457 64.8296C120.792 63.88 120.792 63.8448 120.511 62.7545C108.596 68.8039 96.048 66.9398 83.3244 65.533ZM58.8963 65.4275C55.2409 64.7241 51.937 64.091 48.6682 63.4579C48.3518 66.7288 48.0706 69.9645 47.7192 73.6575C50.7068 73.9389 53.6592 74.2906 56.5765 74.5016C56.928 74.5368 57.631 73.9389 57.7013 73.552C58.1582 70.8438 58.5097 68.1356 58.8963 65.4275ZM46.2781 74.2906C43.9583 73.2354 41.9548 72.321 39.9865 71.4417C38.7563 74.3609 37.5613 77.2449 36.2608 80.3751C38.7563 81.0785 41.2167 81.8171 43.9231 82.5909C44.7316 79.6717 45.5048 76.9987 46.2781 74.2906ZM62.9735 50.5502C65.8205 47.7717 68.1403 44.9228 69.6165 41.5112C70.1438 40.2451 70.2141 39.1548 69.019 38.1348C67.8943 42.6015 64.5552 45.4855 61.3918 48.5806C61.9542 49.284 62.4111 49.8467 62.9735 50.5502ZM35.839 68.6632C37.7722 71.301 37.8073 71.4417 36.5069 74.4664C35.9445 75.7326 35.347 76.9987 34.7143 78.3704C32.6757 77.0339 30.7425 75.7326 28.8445 74.4664C29.0906 73.763 29.3015 73.2003 29.4772 72.6375C29.6529 72.0396 29.8287 71.4417 30.0396 70.8086C28.4579 70.9845 28.3525 71.09 27.2277 75.1347C29.7232 76.647 32.2891 78.1945 35.1361 79.9531C36.5069 76.5767 37.7019 73.6575 38.9321 70.6679C37.7019 69.8942 36.788 69.2611 35.839 68.6632ZM61.1458 66.0957C63.4656 62.2269 67.0859 60.9256 71.2334 60.5035C69.6517 58.6747 67.5076 58.5691 64.3794 60.1518C61.1107 61.7697 60.478 62.8952 61.1458 66.0957ZM60.6537 61.2773C63.1493 60.1518 65.7502 58.9912 68.2458 57.8657C66.4883 55.6851 65.5745 55.3334 63.4656 56.3534C60.6537 57.6547 60.0914 58.745 60.6537 61.2773ZM67.5428 65.322C69.0893 62.5083 69.6165 62.3324 73.0259 63.2117C73.3774 63.2821 73.7992 62.9655 74.4319 62.7545C71.0928 60.9256 65.6096 62.1917 63.2547 65.322C62.3057 66.5529 61.8136 68.1005 60.9701 69.859C61.9894 69.7183 62.4814 69.6832 62.9032 69.6128C63.1844 65.8847 64.5552 64.6537 67.5428 65.322ZM29.5826 84.9825C31.0589 85.1232 32.9569 83.224 34.0113 80.7972C31.4455 79.2145 28.8797 77.6318 26.4896 76.1546C24.8376 77.4208 23.2911 78.6166 21.6743 79.8827C21.85 80.0234 22.307 80.551 22.4124 80.4806C23.9589 79.5662 25.4352 78.5814 27.0168 77.5615C28.3173 78.3352 29.7584 79.1793 31.2346 79.9883C32.4648 80.6565 32.5351 81.5006 31.6915 82.5206C30.9886 83.2943 30.3208 84.1032 29.5826 84.9825ZM59.7047 75.5919C58.4394 75.8381 57.3146 78.6166 56.7171 82.9074C59.2126 83.1185 61.1458 81.782 60.7943 79.9531C60.5131 78.4759 60.0562 77.0339 59.7047 75.5919ZM49.7929 61.6994C49.7578 61.9456 49.7226 62.1917 49.6875 62.4379C52.6751 63.0007 55.6627 63.5282 58.6503 64.091C58.6503 61.2773 58.6503 58.8153 58.6503 56.3534C58.4394 56.3534 58.2285 56.3182 58.0528 56.3182C57.8067 58.3933 57.5255 60.4684 57.2795 62.5435C54.6082 62.2621 52.183 61.9807 49.7929 61.6994ZM47.3677 63.8096C47.0865 63.7393 46.8053 63.7041 46.5241 63.6338C46.2429 66.2012 45.9617 68.7687 45.6454 71.512C44.1692 70.8438 42.7633 70.5976 42.0251 69.7535C41.3925 69.0501 41.5331 67.6432 41.287 66.3771C39.6702 69.1556 39.8459 69.9294 42.2712 71.1252C43.5717 71.7582 44.9073 72.321 46.5593 73.0244C46.8405 69.7887 47.0865 66.7991 47.3677 63.8096ZM43.3959 83.7164C40.6192 82.9074 38.0182 82.1337 35.4524 81.3599C34.2574 82.8723 33.0975 84.3494 31.9376 85.8266C34.3277 85.8266 34.6088 83.5757 35.9796 82.2744C37.8073 82.9074 39.7054 83.5757 41.8142 84.2791C41.2519 85.6508 40.7949 86.8818 40.3029 88.1127C40.4786 88.2183 40.6192 88.3238 40.7949 88.4293C42.3063 87.3038 42.4821 85.3342 43.3959 83.7164ZM13.8714 72.0748C14.8204 72.532 15.3827 73.0596 16.0154 73.0947C17.3862 73.1651 18.7921 73.0596 20.1629 72.9541C21.2877 72.8485 22.3773 72.4968 23.0099 73.8685C23.6074 75.1347 23.0099 75.9788 22.0609 76.7174C21.358 77.2801 20.6901 77.8428 20.0223 78.4056C20.1629 78.5814 20.3035 78.7924 20.4441 78.9683C22.1312 77.8076 23.8183 76.6118 25.8921 75.1698C24.205 73.9389 23.0451 72.4265 21.6743 72.1803C19.3194 71.7582 16.8238 72.0748 13.8714 72.0748ZM42.6578 88.3589C42.8335 88.4996 43.0093 88.6051 43.185 88.7458C43.5717 88.1831 43.9583 87.5852 44.4152 87.0928C44.9776 86.4597 45.5751 85.4749 46.2429 85.4398C48.5276 85.2287 50.8474 85.3694 53.2023 85.3694C53.2023 86.2135 53.2023 86.7411 53.2023 87.2335C53.3077 87.2335 53.378 87.2686 53.4835 87.2686C53.8701 86.3894 54.2216 85.5101 54.6082 84.6308C51.1637 84.4198 47.93 84.2088 44.6613 83.9977C43.9583 85.4397 43.2905 86.8818 42.6578 88.3589ZM64.8364 54.7707C63.1493 52.2735 62.4463 52.2384 60.1617 53.399C57.9473 54.5597 60.0914 55.7906 60.0211 56.9864C61.7433 56.2127 63.2898 55.4741 64.8364 54.7707ZM92.1466 88.5348C94.0094 90.012 96.048 89.5899 98.649 87.2335C97.8055 86.8114 97.0322 86.319 96.1535 86.0025C95.7669 85.8618 95.1342 85.897 94.8178 86.1432C93.8689 86.8818 93.0253 87.7259 92.1466 88.5348ZM71.1982 50.2336C71.0576 49.073 71.0576 48.5103 70.8819 48.053C70.2492 46.4 69.9329 44.8173 71.2334 43.3049C71.4442 43.0236 71.1631 42.3202 71.0928 41.7574C68.4566 44.6414 69.3354 47.842 69.6868 51.1129C71.1631 50.6557 72.4284 50.1281 72.569 48.3344C72.2175 48.8268 71.8309 49.3192 71.1982 50.2336ZM72.9205 50.6908C72.1472 52.1329 69.722 51.3943 69.6517 53.3638C69.6165 54.7707 68.5972 56.4237 70.3898 57.9361C70.5304 57.0216 70.7413 56.3534 70.671 55.6851C70.5655 54.7003 70.8819 54.1376 71.7957 53.8562C73.3774 53.3638 73.6234 52.3087 72.9205 50.6908ZM60.0211 49.0378C58.9666 46.7869 58.1231 45.8724 55.5221 47.631C55.979 48.4399 56.4711 49.284 56.928 50.0929C58.0176 49.7412 59.0369 49.3895 60.0211 49.0378ZM105.503 70.4921C103.007 70.3162 103.007 70.3162 101.742 73.7982C102.129 74.0444 102.55 74.2906 103.043 74.5719C103.886 73.1651 104.624 71.9341 105.503 70.4921ZM88.1397 79.6717C86.6635 81.0082 85.3981 82.1337 83.9922 83.3647C84.4843 83.7515 84.906 84.0681 85.1169 84.2439C86.4877 83.0129 87.7179 81.9227 88.8426 80.9379C88.5966 80.4103 88.3857 80.0938 88.1397 79.6717ZM120.511 65.7792C120.265 65.6737 120.019 65.5682 119.738 65.4626C118.894 67.1509 118.016 68.8391 116.891 71.0548C117.84 70.879 118.789 70.9141 118.894 70.6328C119.562 69.0501 120.019 67.397 120.511 65.7792ZM75.9784 63.0007C75.9432 62.8952 75.8729 62.8248 75.8378 62.7193C75.0645 63.1765 74.2561 63.6689 73.4828 64.1262C72.2527 63.7041 70.8819 63.4227 69.722 63.7744C69.019 63.9855 68.6324 65.1813 68.1052 65.955C68.2458 66.0254 68.3512 66.1309 68.4918 66.2012C70.4249 64.0206 71.3388 63.8448 73.9398 64.9703C74.6427 64.2668 75.3106 63.6338 75.9784 63.0007ZM62.0245 51.4998C60.8646 49.8116 59.6696 49.7764 57.6661 51.4646C57.9473 51.9922 58.2285 52.5549 58.4745 53.0121C59.6696 52.4846 60.7943 52.0273 62.0245 51.4998ZM108.35 77.5263C109.193 77.3856 109.861 77.4911 110.107 77.2097C110.951 76.2601 111.724 75.205 112.427 74.1147C112.603 73.8685 112.287 73.3409 112.216 72.9189C111.865 73.0596 111.408 73.1299 111.232 73.3761C110.283 74.6071 109.475 75.8733 108.35 77.5263ZM104.589 76.0139C104.8 75.9084 105.011 75.8029 105.187 75.7326C106.065 73.9388 106.979 72.1451 107.858 70.3514C107.612 70.2107 107.331 70.07 107.085 69.9294C106.1 71.6176 105.081 73.3058 104.132 75.0291C104.027 75.1698 104.413 75.6622 104.589 76.0139ZM27.4386 7.11404C27.4738 6.83267 27.4738 6.58647 27.5089 6.30511C24.451 6.30511 21.4282 6.30511 18.3703 6.30511C18.3703 6.41062 18.3703 6.48096 18.3703 6.58647C21.3931 6.76233 24.4159 6.93818 27.4386 7.11404ZM54.784 46.3648C55.6978 46.0835 56.5765 45.8373 57.4201 45.5559C56.0844 42.9884 55.5924 42.8829 53.8701 44.747C54.1161 45.2393 54.3973 45.7317 54.784 46.3648ZM100.758 85.9673C97.1728 84.2088 96.8564 84.1384 95.9777 85.1936C98.7193 87.0576 99.4223 87.1631 100.758 85.9673ZM55.3112 42.496C54.5379 41.4057 54.0459 39.8582 52.5345 41.0892C52.183 41.3705 52.7102 42.7774 52.886 43.7622C53.9404 43.2346 54.5379 42.9181 55.3112 42.496ZM64.8364 52.9066C66.1017 54.0673 67.0507 54.9465 68.2106 56.0017C68.2106 54.7003 68.2106 53.7859 68.2106 52.9066C67.1562 52.9066 66.2072 52.9066 64.8364 52.9066ZM51.2691 40.4561C51.6909 40.2451 51.937 40.1396 52.183 39.9989C52.4993 39.8582 52.7805 39.7175 53.0968 39.5768C51.8315 37.3611 51.6558 37.2907 50.0389 38.4514C50.4256 39.0844 50.8122 39.7175 51.2691 40.4561ZM47.7543 34.8288C48.3167 35.7432 48.8088 36.517 49.336 37.3259C49.9335 37.0445 50.4607 36.7983 51.0231 36.517C50.1795 35.497 49.8281 33.8791 47.7543 34.8288ZM68.0349 51.5701C68.0349 49.9523 68.0349 48.5454 68.0349 47.1386C67.6482 47.3496 67.5076 47.5606 67.5076 47.7365C67.5428 48.7213 68.0349 50.0226 67.5428 50.5853C67.0156 51.1832 65.6799 51.1129 64.6958 51.3239C64.6255 51.3591 64.5903 51.4998 64.4146 51.746C65.6799 51.6756 66.8398 51.6405 68.0349 51.5701ZM74.1858 67.0102C73.3071 65.1813 72.0769 64.6185 70.7413 65.1813C69.5462 65.6737 69.1245 66.9047 69.6517 68.2411C70.5304 65.3923 71.4091 65.1109 74.1858 67.0102ZM26.103 74.185C26.5247 73.0596 26.8411 72.321 27.2277 71.2659C25.9624 71.5121 25.0485 71.6879 23.8886 71.8989C24.697 72.7079 25.2594 73.3058 26.103 74.185ZM89.7916 70.3162C88.5263 71.3362 88.2451 72.3562 89.5808 73.5168C90.9867 71.8286 90.9867 71.8286 89.7916 70.3162ZM75.0294 66.2012C76.4705 64.6889 76.4705 64.6889 79.0363 65.955C78.4036 64.6185 77.6303 63.7744 76.2244 63.9855C75.1348 64.1262 74.713 64.9351 75.0294 66.2012ZM48.633 33.2812C47.1568 30.9951 47.1568 30.9951 45.7509 31.6985C46.6296 32.4371 46.5241 34.6177 48.633 33.2812ZM67.6131 66.2364C66.9101 66.0957 65.9963 65.6385 65.5393 65.9199C64.6958 66.4826 64.0983 67.4322 63.325 68.3115C64.8715 67.5729 66.0666 67.0102 67.6131 66.2364ZM88.1045 75.5215C89.6511 74.0444 89.6511 74.0092 87.9639 72.4265C87.6125 72.8485 87.261 73.3058 86.9095 73.7278C87.3313 74.3961 87.7179 74.9588 88.1045 75.5215ZM68.2106 69.9294C68.1403 68.1356 67.4373 67.5729 66.4532 67.6432C65.3284 67.7488 64.6255 68.4522 64.8364 69.9645C65.7502 68.3115 66.8047 68.206 68.2106 69.9294ZM26.7356 1.76805C26.595 1.8384 26.4545 1.94391 26.2787 2.01425C27.5792 3.94865 28.8445 5.84788 30.145 7.78229C30.3208 7.67677 30.4614 7.57126 30.6371 7.46575C29.3366 5.56652 28.0361 3.66729 26.7356 1.76805ZM107.471 77.4208C106.768 77.1042 106.136 76.7877 105.397 76.4712C105.222 76.647 105.046 76.7877 104.941 76.9987C104.835 77.1746 104.765 77.4208 104.659 77.5966C106.487 78.7221 106.487 78.7221 107.471 77.4208ZM60.0211 69.4018C59.8805 69.3666 59.7399 69.3666 59.5993 69.3315C59.3884 70.9493 59.1775 72.5672 58.9315 74.1499C59.1423 74.185 59.3884 74.2202 59.5993 74.2202C59.7399 72.6375 59.8805 71.0197 60.0211 69.4018ZM44.591 27.6539C43.7826 27.0911 43.9583 25.1919 42.0251 25.8602C42.9038 26.6691 42.7281 28.4628 44.591 27.6539ZM104.589 87.0928C104.589 86.9521 104.589 86.8114 104.554 86.6356C103.289 86.2487 101.988 85.8266 101.285 87.8314C102.41 87.6203 103.499 87.339 104.589 87.0928ZM62.1651 70.5624C60.8295 70.9493 60.3725 72.7079 61.3567 74.5368C61.6379 73.1651 61.9191 71.8286 62.1651 70.5624ZM82.5863 81.9578C82.762 82.204 82.9377 82.415 83.0783 82.6612C84.0273 81.8875 84.9412 81.1137 85.8902 80.34C85.7144 80.1289 85.5387 79.9179 85.3981 79.7069C84.4491 80.4455 83.5353 81.2192 82.5863 81.9578ZM38.5103 18.8611C38.2291 20.6197 39.0024 21.6396 40.4786 21.6045C39.7756 20.5845 39.143 19.7052 38.5103 18.8611Z" fill="#B67324"/>
<path d="M19.3892 28.8498C22.0253 31.2062 21.4981 33.5627 18.1239 35.5323C15.8041 34.1254 15.6635 32.8593 17.5263 30.9952C18.1942 30.327 18.7565 29.5532 19.3892 28.8498Z" fill="#B67324"/>
<path d="M16.964 23.961C15.4526 23.4687 13.9061 22.9411 11.9729 22.308C13.4491 21.6046 14.0466 23.8204 15.3471 22.4135C15.6635 22.097 17.1397 22.8004 17.9481 23.0114C17.8075 23.1521 17.3506 23.5742 16.8937 23.9962C16.8937 24.0314 16.964 23.961 16.964 23.961Z" fill="#B67324"/>
<path d="M29.1602 57.1623C28.5275 56.8458 27.4379 56.5996 27.2974 56.072C27.0865 55.4038 27.4379 54.3135 27.8949 53.7156C30.6716 50.3392 34.3973 48.2289 38.3691 46.5759C40.6185 45.6262 43.0086 45.0283 45.3987 44.5711C46.2774 44.3953 47.2967 45.0635 48.2457 45.3449C47.9294 46.2241 47.8942 47.3496 47.2967 47.9827C42.376 53.0825 36.2602 55.861 29.1602 57.1623Z" fill="#B67324"/>
<path d="M94.1495 60.5389C91.6891 60.0465 88.7367 59.4838 85.7491 58.8507C85.257 58.7452 84.6946 58.5693 84.308 58.2176C83.7456 57.7252 83.2887 57.057 82.7966 56.4591C83.3942 55.9667 83.9565 55.1578 84.6595 55.0522C86.6981 54.6302 88.8421 54.1378 90.8807 54.3488C94.2198 54.7005 97.5238 55.4743 100.793 56.2832C101.531 56.4591 102.023 57.5142 102.655 58.1473C101.917 58.6748 101.285 59.4838 100.476 59.6948C98.5782 60.1168 96.6451 60.2224 94.1495 60.5389Z" fill="#B67324"/>
<path d="M49.6519 72.5322C49.7924 69.7537 49.933 67.2565 50.0385 64.9352C52.0419 65.498 54.3617 66.1311 57.1384 66.9048C57.033 68.593 56.9978 70.6681 56.7167 72.708C56.6815 73.0949 55.6974 73.6928 55.2053 73.6225C53.2721 73.3763 51.339 72.8839 49.6519 72.5322Z" fill="#B67324"/>
<path d="M47.2969 75.838C49.5816 76.2248 51.8311 76.7876 54.1157 76.9634C55.6974 77.1041 56.0488 77.6317 55.5919 79.0385C55.3107 79.9881 55.0998 80.9377 54.8538 82.0632C52.0419 81.9225 49.3004 81.817 46.4534 81.6763C46.7697 79.6012 47.0509 77.7372 47.2969 75.838C47.3321 75.838 47.2969 75.838 47.2969 75.838Z" fill="#B67324"/>
<path d="M40.1969 72.7432C41.4622 73.4115 42.7979 74.0094 43.9578 74.7831C44.4147 75.0997 44.8013 75.9086 44.731 76.4362C44.485 78.0189 43.9929 79.5664 43.536 81.3249C41.3919 80.7974 39.4588 80.3401 37.5256 79.8478C38.4746 77.4561 39.3182 75.1348 40.1969 72.7432Z" fill="#B67324"/>
</g>
<defs>
<clipPath id="clip0_1_569">
<rect width="121.613" height="91.3741" fill="white" transform="translate(0.0576172 0.0447998)"/>
</clipPath>
</defs>
</svg>
